<?xml version="1.0" standalone="no"?><!DOCTYPE svg PUBLIC "-//W3C//DTD SVG 1.1//EN" "http://www.w3.org/Graphics/SVG/1.1/DTD/svg11.dtd"><svg t="1655362574440" class="icon" viewBox="0 0 1024 1024" version="1.1" xmlns="http://www.w3.org/2000/svg" p-id="4170" xmlns:xlink="http://www.w3.org/1999/xlink" width="200" height="200"><defs><style type="text/css"></style></defs><path d="M959.59133 307.2c-4 87.2-64.8 206.6-182.8 358.2-121.8 158.4-224.8 237.6-309.2 237.6-52.2 0-96.4-48.2-132.6-144.6C264.59133 500 234.59133 348.6 176.39133 348.6c-6.8 0-30.2 14.2-70.4 42.2L63.99133 336.4c103.2-90.6 201.8-191.4 263.6-197 69.8-6.8 112.6 41 128.8 143 57.4 363 82.8 417.8 187.2 253.4 37.4-59.2 57.6-104.2 60.4-135.2 9.6-91.8-71.6-85.6-126.6-62 44-144.2 128.2-214.2 252.4-210.2 91.6 2.4 135 62.2 129.8 178.8z" fill="#42b883" p-id="4171"></path></svg>